<?xml version="1.0" standalone="no"?>
<!DOCTYPE svg PUBLIC "-//W3C//DTD SVG 20010904//EN"
 "http://www.w3.org/TR/2001/REC-SVG-20010904/DTD/svg10.dtd">
<svg version="1.0" xmlns="http://www.w3.org/2000/svg"
 width="40.000000pt" height="40.000000pt" viewBox="0 0 40.000000 40.000000"
 preserveAspectRatio="xMidYMid meet">

<g transform="translate(0.000000,40.000000) scale(0.100000,-0.100000)"
fill="#000000" stroke="none">
<path d="M37 323 c-21 -20 -3 -30 58 -30 43 0 65 4 65 12 0 19 -12 25 -31 15
-12 -7 -20 -7 -24 0 -5 8 -11 7 -21 -1 -10 -8 -18 -9 -27 0 -8 6 -17 8 -20 4z"/>
<path d="M35 272 c-16 -17 -1 -29 35 -29 32 0 40 3 38 16 -3 15 -60 26 -73 13z"/>
<path d="M125 271 c-8 -15 3 -31 21 -31 9 0 14 7 12 17 -4 20 -24 28 -33 14z
m25 -11 c0 -5 -4 -10 -10 -10 -5 0 -10 5 -10 10 0 6 5 10 10 10 6 0 10 -4 10
-10z"/>
<path d="M258 253 c12 -2 32 -2 45 0 12 2 2 4 -23 4 -25 0 -35 -2 -22 -4z"/>
<path d="M30 214 c0 -20 19 -27 35 -14 11 9 15 9 15 1 0 -6 7 -11 15 -11 8 0
15 5 15 11 0 8 4 8 15 -1 16 -13 35 -6 35 14 0 9 -19 13 -65 13 -46 0 -65 -4
-65 -13z"/>
<path d="M258 223 c12 -2 32 -2 45 0 12 2 2 4 -23 4 -25 0 -35 -2 -22 -4z"/>
<path d="M258 193 c12 -2 32 -2 45 0 12 2 2 4 -23 4 -25 0 -35 -2 -22 -4z"/>
<path d="M258 173 c12 -2 32 -2 45 0 12 2 2 4 -23 4 -25 0 -35 -2 -22 -4z"/>
</g>
</svg>
