<?xml version="1.0" standalone="no"?>
<!DOCTYPE svg PUBLIC "-//W3C//DTD SVG 20010904//EN"
 "http://www.w3.org/TR/2001/REC-SVG-20010904/DTD/svg10.dtd">
<svg version="1.0" xmlns="http://www.w3.org/2000/svg"
 width="38.000000pt" height="38.000000pt" viewBox="0 0 38.000000 38.000000"
 preserveAspectRatio="xMidYMid meet">

<g transform="translate(0.000000,38.000000) scale(0.100000,-0.100000)"
fill="#000000" stroke="none">
<path d="M92 347 c7 -24 48 -72 127 -151 113 -113 117 -116 139 -100 12 8 22
23 22 32 0 10 -51 68 -113 130 -92 92 -120 114 -149 119 l-37 5 11 -35z m48
-7 c0 -5 -4 -10 -10 -10 -5 0 -10 5 -10 10 0 6 5 10 10 10 6 0 10 -4 10 -10z
m158 -167 c-9 -12 -25 0 -84 58 -58 58 -71 76 -62 86 9 12 25 0 84 -58 58 -58
71 -76 62 -86z m32 -7 c0 -2 -8 -10 -17 -17 -16 -13 -17 -12 -4 4 13 16 21 21
21 13z m23 -47 c-17 -17 -37 -1 -22 17 8 10 15 12 23 4 7 -7 7 -13 -1 -21z"/>
<path d="M197 273 c-7 -11 61 -78 70 -69 3 3 -10 22 -29 42 -20 20 -38 32 -41
27z"/>
</g>
</svg>
